<svg id="SvgjsSvg1028" width="268.8" height="49.15746881959918" xmlns="http://www.w3.org/2000/svg" version="1.1"
     xmlns:xlink="http://www.w3.org/1999/xlink" xmlns:svgjs="http://svgjs.com/svgjs">
    <defs id="SvgjsDefs1029"></defs>
    <g id="SvgjsG1030" transform="scale(1.184631502303817)" opacity="1">
        <g id="SvgjsG1031" class="ryk4k0xjG"
           transform="translate(0.013008200092375464, 0.013008200092375464) scale(0.5203260188087774)"
           light-content="false" fill="#474747">
            <path fill="none" stroke="#474747" stroke-width="4" stroke-miterlimit="10"
                  d="M39.9 39.9c-14.3 0-26-11.6-26-26 0-2.1 1.7-3.9 3.9-3.9H35m22.5 5.3L45.4 3.1c-1.5-1.5-4-1.5-5.5 0-10.1 10.1-10.1 26.6 0 36.7m29.8-4.9V17.8c0-2.1-1.7-3.9-3.9-3.9-14.3 0-26 11.6-26 26m24.7 17.6l12.1-12.1c1.5-1.5 1.5-4 0-5.5-10.1-10.1-26.6-10.1-36.7 0m4.9 29.8H62c2.1 0 3.9-1.7 3.9-3.9 0-14.3-11.6-26-26-26M22.2 64.5l12.1 12.1c1.5 1.5 4 1.5 5.5 0C50 66.5 50 50 39.9 39.9M10 44.8V62c0 2.1 1.7 3.9 3.9 3.9 14.3 0 26-11.6 26-26M15.3 22.2L3.1 34.4c-1.5 1.5-1.5 4 0 5.5C13.3 50 29.7 50 39.9 39.9"></path>
        </g>
        <rect id="SvgjsRect1032" width="1" height="41.495999999999995" fill="#000000" x="56.995999999999995"
              y="0"></rect>
        <g id="SvgjsG1033" class="text" transform="translate(71.87599999523161, 22.343000267028806)"
           light-content="false" fill="#474747">
            <path d="M12.74-18.60L12.74-19.39C12.47-19.28 12.01-19.17 11.35-19.06C10.70-18.95 10.09-18.90 9.53-18.90L1.62-18.90L1.65-18.63L1.97-18.63C2.42-18.63 2.82-18.48 3.17-18.18C3.52-17.89 3.70-17.52 3.70-17.09L3.70-1.97C3.68-1.50 3.51-1.10 3.17-0.77C2.84-0.44 2.44-0.27 1.97-0.27L1.62-0.27L1.62 0L7.53 0L7.53-0.27L7.18-0.27C6.71-0.27 6.31-0.44 5.97-0.77C5.62-1.10 5.45-1.50 5.45-1.97L5.45-8.91L10.04-8.91C10.40-8.89 10.71-8.76 10.95-8.51C11.19-8.25 11.31-7.95 11.31-7.59L11.31-7.18L11.58-7.18L11.58-11.45L11.31-11.45L11.31-11.04C11.31-10.68 11.19-10.38 10.94-10.13C10.68-9.87 10.38-9.74 10.02-9.72L5.45-9.72L5.45-18.06L11.15-18.06C11.53-18.06 11.84-17.93 12.10-17.67C12.35-17.41 12.47-17.10 12.47-16.74L12.47-16.34L12.74-16.34ZM16.58-0.27L16.23-0.27L16.23 0L22.14 0L22.14-0.27L21.79-0.27C21.32-0.27 20.92-0.44 20.57-0.77C20.23-1.10 20.06-1.50 20.06-1.97L20.06-16.96C20.08-17.42 20.25-17.82 20.59-18.14C20.92-18.47 21.32-18.63 21.79-18.63L22.14-18.63L22.14-18.90L16.23-18.90L16.23-18.63L16.58-18.63C17.05-18.63 17.45-18.47 17.78-18.14C18.11-17.82 18.29-17.42 18.31-16.96L18.31-1.97C18.29-1.50 18.11-1.10 17.78-0.77C17.45-0.44 17.05-0.27 16.58-0.27ZM44.74-18.63L45.22-18.63L45.22-18.90L39.66-18.90L39.66-18.63L40.18-18.63C40.63-18.63 41.01-18.47 41.34-18.16C41.66-17.84 41.83-17.45 41.85-16.98L41.85-3.59L27.13-19.30L26.86-19.30L26.92-18.87C27.04-18.01 27.11-17.03 27.11-15.93L27.11-1.92C27.11-1.45 26.95-1.06 26.62-0.74C26.30-0.43 25.91-0.27 25.46-0.27L24.95-0.27L24.95 0L30.51 0L30.51-0.27L30.00-0.27C29.71-0.27 29.44-0.34 29.19-0.49C28.65-0.79 28.37-1.26 28.35-1.89L28.35-15.34L43.06 0.38L43.31 0.38L43.25-0.11C43.13-1.04 43.06-2.03 43.06-3.08L43.06-17.01C43.08-17.46 43.25-17.84 43.58-18.16C43.90-18.47 44.29-18.63 44.74-18.63ZM65.34-0.27C64.87-0.27 64.42-0.41 63.99-0.70C63.56-0.99 63.22-1.41 62.96-1.97L55.73-19.28L55.48-19.28C55.48-18.88 55.15-17.95 54.49-16.50L48.38-1.97C48.11-1.41 47.76-0.99 47.33-0.70C46.90-0.41 46.46-0.27 46.01-0.27L45.76-0.27L45.76 0L51.19 0L51.19-0.27L50.95-0.27C50.57-0.27 50.29-0.39 50.10-0.63C49.91-0.88 49.81-1.10 49.81-1.31C49.81-1.52 49.85-1.73 49.92-1.94L51.73-6.56L59.02-6.56L60.75-1.97C60.82-1.75 60.86-1.54 60.86-1.32C60.86-1.11 60.76-0.88 60.57-0.63C60.39-0.39 60.10-0.27 59.72-0.27L59.48-0.27L59.48 0L65.56 0L65.56-0.27ZM52.06-7.37L55.46-16.04L58.70-7.37ZM67.23-0.27L66.88-0.27L66.88 0L78.08 0L79.65-4.37L79.38-4.37C78.91-3.20 78.33-2.32 77.63-1.73C76.92-1.13 75.91-0.84 74.57-0.84L70.71-0.84L70.71-16.93C70.71-17.23 70.79-17.52 70.96-17.79C71.30-18.35 71.79-18.63 72.44-18.63L72.79-18.63L72.79-18.90L66.88-18.90L66.88-18.63L67.23-18.63C67.70-18.63 68.10-18.46 68.43-18.13C68.76-17.80 68.94-17.40 68.96-16.93L68.96-1.97C68.94-1.50 68.76-1.10 68.43-0.77C68.10-0.44 67.70-0.27 67.23-0.27ZM82.00-0.27L81.65-0.27L81.65 0L92.85 0L94.42-4.37L94.15-4.37C93.68-3.20 93.10-2.32 92.39-1.73C91.69-1.13 90.68-0.84 89.34-0.84L85.48-0.84L85.48-16.93C85.48-17.23 85.56-17.52 85.72-17.79C86.07-18.35 86.56-18.63 87.21-18.63L87.56-18.63L87.56-18.90L81.65-18.90L81.65-18.63L82.00-18.63C82.47-18.63 82.87-18.46 83.20-18.13C83.53-17.80 83.71-17.40 83.73-16.93L83.73-1.97C83.71-1.50 83.53-1.10 83.20-0.77C82.87-0.44 82.47-0.27 82.00-0.27ZM110.38-18.63L110.38-18.90L104.38-18.90L104.38-18.63L104.71-18.63C105.10-18.63 105.41-18.45 105.62-18.09C105.75-17.89 105.81-17.70 105.81-17.52C105.81-17.34 105.77-17.16 105.68-16.98L101.36-9.40L97.31-16.96C97.22-17.14 97.17-17.32 97.17-17.51C97.17-17.70 97.23-17.89 97.33-18.09C97.55-18.45 97.86-18.63 98.25-18.63L98.60-18.63L98.60-18.90L91.96-18.90L91.96-18.63L92.34-18.63C92.88-18.63 93.40-18.48 93.89-18.17C94.39-17.87 94.77-17.50 95.04-17.06L100.20-8.45L100.20-1.94C100.18-1.48 100.00-1.08 99.67-0.76C99.34-0.43 98.94-0.27 98.47-0.27L98.12-0.27L98.12 0L104.00 0L104.00-0.27L103.68-0.27C103.19-0.27 102.78-0.44 102.45-0.77C102.12-1.10 101.95-1.50 101.95-1.97L101.95-8.42L107.27-17.06C107.59-17.51 108.00-17.89 108.47-18.18C108.95-18.48 109.46-18.63 110.00-18.63ZM122.82-18.60L122.82-19.39C122.55-19.28 122.09-19.17 121.43-19.06C120.78-18.95 120.17-18.90 119.61-18.90L111.70-18.90L111.73-18.63L112.05-18.63C112.50-18.63 112.90-18.48 113.25-18.18C113.60-17.89 113.78-17.52 113.78-17.09L113.78-1.97C113.76-1.50 113.58-1.10 113.25-0.77C112.92-0.44 112.52-0.27 112.05-0.27L111.70-0.27L111.70 0L117.61 0L117.61-0.27L117.26-0.27C116.79-0.27 116.39-0.44 116.05-0.77C115.70-1.10 115.53-1.50 115.53-1.97L115.53-8.91L120.12-8.91C120.48-8.89 120.78-8.76 121.03-8.51C121.27-8.25 121.39-7.95 121.39-7.59L121.39-7.18L121.66-7.18L121.66-11.45L121.39-11.45L121.39-11.04C121.39-10.68 121.27-10.38 121.01-10.13C120.76-9.87 120.46-9.74 120.10-9.72L115.53-9.72L115.53-18.06L121.23-18.06C121.61-18.06 121.92-17.93 122.18-17.67C122.43-17.41 122.55-17.10 122.55-16.74L122.55-16.34L122.82-16.34ZM126.66-0.27L126.31-0.27L126.31 0L137.51 0L139.08-4.37L138.81-4.37C138.34-3.20 137.75-2.32 137.05-1.73C136.35-1.13 135.33-0.84 134.00-0.84L130.14-0.84L130.14-16.93C130.14-17.23 130.22-17.52 130.38-17.79C130.73-18.35 131.22-18.63 131.87-18.63L132.22-18.63L132.22-18.90L126.31-18.90L126.31-18.63L126.66-18.63C127.13-18.63 127.53-18.46 127.86-18.13C128.19-17.80 128.37-17.40 128.39-16.93L128.39-1.97C128.37-1.50 128.19-1.10 127.86-0.77C127.53-0.44 127.13-0.27 126.66-0.27ZM155.03-18.63L155.03-18.90L149.04-18.90L149.04-18.63L149.36-18.63C149.76-18.63 150.07-18.45 150.28-18.09C150.41-17.89 150.47-17.70 150.47-17.52C150.47-17.34 150.43-17.16 150.34-16.98L146.02-9.40L141.97-16.96C141.88-17.14 141.83-17.32 141.83-17.51C141.83-17.70 141.89-17.89 141.99-18.09C142.21-18.45 142.51-18.63 142.91-18.63L143.26-18.63L143.26-18.90L136.62-18.90L136.62-18.63L137.00-18.63C137.54-18.63 138.06-18.48 138.55-18.17C139.05-17.87 139.43-17.50 139.70-17.06L144.86-8.45L144.86-1.94C144.84-1.48 144.66-1.08 144.33-0.76C144.00-0.43 143.59-0.27 143.13-0.27L142.78-0.27L142.78 0L148.66 0L148.66-0.27L148.34-0.27C147.85-0.27 147.44-0.44 147.11-0.77C146.78-1.10 146.61-1.50 146.61-1.97L146.61-8.42L151.93-17.06C152.25-17.51 152.65-17.89 153.13-18.18C153.61-18.48 154.12-18.63 154.66-18.63Z"></path>
        </g>
        <g id="SvgjsG1034" class="text" transform="translate(72.726007648468, 38.34299931335449)" light-content="false"
           fill="#474747">
            <path d="M0.81-0.46C1.05-0.25 1.40-0.08 1.86 0.03C2.32 0.14 2.78 0.20 3.23 0.20C3.92 0.20 4.51-0.02 4.99-0.46C5.47-0.90 5.71-1.44 5.71-2.07C5.71-2.71 5.50-3.20 5.07-3.56L2.24-5.74C1.88-6.04 1.69-6.39 1.69-6.80C1.69-7.20 1.86-7.53 2.18-7.79C2.51-8.05 2.93-8.18 3.43-8.18C3.93-8.18 4.32-8.07 4.59-7.85C4.86-7.64 5.00-7.34 5.00-6.94L5.15-6.94L5.12-8.47L4.66-8.47C4.29-8.55 3.86-8.60 3.37-8.60C2.89-8.60 2.47-8.51 2.11-8.32C1.75-8.14 1.47-7.90 1.27-7.59C1.07-7.28 0.97-6.94 0.97-6.58C0.97-5.94 1.19-5.42 1.64-5.04L4.44-2.88C4.77-2.59 4.94-2.21 4.94-1.76C4.94-1.30 4.77-0.94 4.42-0.65C4.08-0.37 3.60-0.22 2.98-0.22C2.39-0.22 1.93-0.39 1.60-0.71C1.27-1.03 1.11-1.44 1.11-1.95C1.11-2.03 1.11-2.11 1.12-2.20L0.95-2.20C0.83-1.84 0.77-1.49 0.77-1.15C0.77-0.80 0.78-0.57 0.81-0.46ZM13.58-0.14L13.38-0.14L13.38 0L19.06 0L19.83-2.00L19.69-2.00C19.54-1.67 19.39-1.40 19.24-1.19C19.09-0.98 18.86-0.81 18.56-0.66C18.26-0.51 17.90-0.43 17.47-0.43L15.28-0.43L15.28-7.50C15.28-7.71 15.37-7.89 15.53-8.04C15.69-8.19 15.89-8.26 16.11-8.26L16.28-8.26L16.28-8.40L13.38-8.40L13.38-8.26L13.55-8.26C13.77-8.26 13.97-8.19 14.13-8.04C14.29-7.89 14.38-7.71 14.39-7.50L14.39-0.88C14.38-0.68 14.30-0.50 14.14-0.36C13.99-0.21 13.80-0.14 13.58-0.14ZM31.61-8.60C30.75-8.60 29.96-8.41 29.24-8.04C28.52-7.67 27.95-7.15 27.52-6.48C27.10-5.81 26.89-5.10 26.89-4.36C26.89-3.62 27.01-2.97 27.26-2.42C27.50-1.87 27.84-1.40 28.27-1.02C28.69-0.64 29.19-0.34 29.77-0.13C30.35 0.09 31.02 0.20 31.77 0.20C32.53 0.20 33.27 0.01 33.98-0.36C34.70-0.73 35.27-1.25 35.70-1.92C36.12-2.59 36.34-3.35 36.34-4.20C36.34-5.05 36.12-5.81 35.70-6.48C35.27-7.15 34.70-7.67 33.98-8.04C33.27-8.41 32.47-8.60 31.61-8.60ZM31.60-0.22C30.56-0.22 29.68-0.59 28.98-1.34C28.27-2.08 27.92-3.03 27.92-4.20C27.92-5.37 28.27-6.32 28.98-7.06C29.68-7.81 30.56-8.18 31.60-8.18C32.65-8.18 33.53-7.81 34.24-7.06C34.95-6.32 35.30-5.37 35.30-4.20C35.30-3.03 34.95-2.08 34.24-1.34C33.53-0.59 32.65-0.22 31.60-0.22ZM45.12-1.00C45.95-0.21 47.07 0.19 48.46 0.20C49.35 0.20 50.14 0.02 50.83-0.34C51.51-0.70 52.05-1.12 52.45-1.61L52.45-3.29C52.45-3.66 52.66-3.85 53.08-3.85L53.27-3.85L53.27-3.99L50.71-3.99L50.71-3.85L50.91-3.85C51.11-3.85 51.27-3.80 51.39-3.70C51.51-3.60 51.56-3.47 51.55-3.30L51.54-1.44C50.71-0.63 49.71-0.22 48.56-0.22C47.41-0.22 46.51-0.58 45.85-1.29C45.20-2.01 44.87-2.98 44.87-4.20C44.87-5.42 45.20-6.39 45.84-7.11C46.49-7.82 47.33-8.18 48.36-8.18C49.40-8.18 50.19-7.98 50.76-7.59C51.32-7.20 51.70-6.59 51.90-5.77L52.03-5.77L51.72-7.76C50.79-8.32 49.67-8.60 48.35-8.60C47.03-8.60 45.95-8.20 45.12-7.41C44.28-6.62 43.86-5.56 43.86-4.21C43.86-2.86 44.28-1.79 45.12-1.00ZM68.93-0.14C68.49-0.14 68.13-0.41 67.86-0.95L64.40-8.60L64.27-8.60C64.26-8.47 64.18-8.20 64.02-7.81C63.94-7.61 62.87-5.32 60.83-0.95C60.70-0.68 60.53-0.48 60.33-0.34C60.13-0.21 59.93-0.14 59.74-0.14L59.62-0.14L59.62 0L62.30 0L62.30-0.14L62.19-0.14C62.00-0.14 61.86-0.20 61.77-0.33C61.67-0.46 61.63-0.57 61.63-0.68C61.63-0.79 61.65-0.90 61.70-1.02L62.47-2.84L66.01-2.84L66.78-0.98C66.82-0.88 66.83-0.77 66.83-0.67C66.83-0.56 66.79-0.44 66.69-0.32C66.60-0.20 66.47-0.14 66.29-0.14L66.18-0.14L66.18 0L69.05 0L69.05-0.14ZM62.65-3.26L64.27-7.10L65.84-3.26ZM85.30-8.26L85.53-8.26L85.53-8.40L82.89-8.40L82.89-8.26L83.13-8.26C83.33-8.26 83.51-8.19 83.66-8.06C83.81-7.92 83.89-7.76 83.91-7.56L83.91-1.75L76.64-8.60L76.49-8.61L76.52-8.39C76.58-7.94 76.62-7.43 76.62-6.86L76.62-0.87C76.62-0.66 76.54-0.49 76.39-0.35C76.24-0.21 76.06-0.14 75.85-0.14L75.61-0.14L75.61 0L78.25 0L78.25-0.14L78.02-0.14C77.80-0.14 77.62-0.21 77.47-0.35C77.32-0.49 77.25-0.66 77.25-0.87L77.25-6.71L84.53 0.20L84.65 0.20L84.62-0.06C84.56-0.54 84.53-1.05 84.53-1.60L84.53-7.56C84.54-7.76 84.61-7.92 84.76-8.06C84.91-8.19 85.09-8.26 85.30-8.26ZM108.81-0.14L108.64-0.14L108.64 0L111.50 0L111.50-0.14L111.33-0.14C111.11-0.14 110.90-0.23 110.70-0.42C110.59-0.52 110.53-0.68 110.52-0.88L110.52-7.53C110.53-7.74 110.61-7.91 110.77-8.05C110.93-8.19 111.11-8.26 111.33-8.26L111.50-8.26L111.50-8.40L108.64-8.40L108.64-8.26L108.81-8.26C109.03-8.26 109.24-8.17 109.44-7.98C109.56-7.87 109.62-7.71 109.62-7.50L109.62-4.35L104.45-4.35L104.45-7.52C104.46-7.72 104.55-7.90 104.71-8.04C104.86-8.19 105.05-8.26 105.27-8.26L105.43-8.26L105.43-8.40L102.58-8.40L102.58-8.26L102.75-8.26C102.96-8.26 103.15-8.19 103.31-8.04C103.46-7.89 103.55-7.71 103.56-7.50L103.56-0.90C103.55-0.69 103.47-0.51 103.31-0.36C103.16-0.21 102.97-0.14 102.75-0.14L102.58-0.14L102.58 0L105.43 0L105.43-0.14L105.27-0.14C105.05-0.14 104.86-0.21 104.71-0.36C104.55-0.50 104.46-0.68 104.45-0.88L104.45-3.93L109.62-3.93L109.62-0.88C109.61-0.68 109.53-0.50 109.37-0.36C109.21-0.21 109.02-0.14 108.81-0.14ZM119.36-0.14L119.16-0.14L119.16 0L124.85 0L125.62-2.00L125.48-2.00C125.32-1.67 125.16-1.40 125.01-1.19C124.85-0.98 124.63-0.81 124.34-0.66C124.04-0.51 123.68-0.43 123.25-0.43L121.05-0.43L121.05-3.99L123.49-3.99C123.57-3.98 123.65-3.96 123.73-3.93C123.92-3.84 124.02-3.66 124.02-3.40L124.02-3.22L124.18-3.22L124.18-5.18L124.02-5.18L124.02-5.00C124.02-4.83 123.97-4.69 123.87-4.58C123.78-4.47 123.63-4.41 123.45-4.41L121.05-4.41L121.05-7.97L123.97-7.97C124.17-7.97 124.34-7.90 124.47-7.76C124.60-7.62 124.67-7.45 124.67-7.25L124.67-7.04L124.82-7.03L124.82-8.62C124.74-8.59 124.55-8.54 124.26-8.48C123.97-8.43 123.63-8.40 123.25-8.40L119.16-8.40L119.16-8.26L119.36-8.26C119.58-8.26 119.78-8.19 119.93-8.05C120.09-7.91 120.17-7.74 120.17-7.53L120.17-0.88C120.16-0.68 120.08-0.50 119.93-0.36C119.77-0.21 119.58-0.14 119.36-0.14ZM135.43-7.97C135.75-7.97 136.04-7.96 136.30-7.95C136.87-7.92 137.32-7.76 137.65-7.45C137.99-7.14 138.16-6.70 138.16-6.13C138.16-5.68 138.04-5.27 137.81-4.90C137.70-4.72 137.49-4.55 137.18-4.40C136.95-4.28 136.30-4.23 135.20-4.23L135.20-4.09C135.64-4.09 136.11-3.78 136.62-3.15C136.65-3.11 136.87-2.80 137.28-2.22C137.70-1.64 137.93-1.31 137.99-1.23C138.25-0.91 138.54-0.65 138.86-0.43C139.28-0.14 139.86 0 140.59 0L141.03 0L141.03-0.14C140.58-0.14 140.18-0.30 139.84-0.63C139.71-0.75 139.54-0.93 139.34-1.16C139.14-1.38 138.87-1.70 138.54-2.11C138.21-2.52 138.05-2.73 138.06-2.73C137.64-3.33 137.28-3.69 136.98-3.82C137.62-3.89 138.14-4.14 138.55-4.58C138.96-5.02 139.17-5.56 139.17-6.22C139.17-6.87 138.91-7.40 138.40-7.80C137.89-8.20 137.20-8.40 136.32-8.40L132.81-8.40L132.81-8.26L133.01-8.26C133.22-8.26 133.41-8.19 133.56-8.05C133.71-7.91 133.79-7.74 133.79-7.53L133.79-0.88C133.79-0.68 133.71-0.50 133.56-0.36C133.41-0.21 133.22-0.14 133.01-0.14L132.81-0.14L132.81 0L135.68 0L135.67-0.14L135.48-0.14C135.33-0.14 135.20-0.17 135.08-0.24C134.83-0.39 134.70-0.61 134.69-0.90L134.69-7.97ZM147.93-0.14L147.73-0.14L147.73 0L153.41 0L154.18-2.00L154.04-2.00C153.89-1.67 153.73-1.40 153.57-1.19C153.42-0.98 153.20-0.81 152.90-0.66C152.61-0.51 152.25-0.43 151.82-0.43L149.62-0.43L149.62-3.99L152.06-3.99C152.14-3.98 152.22-3.96 152.29-3.93C152.49-3.84 152.59-3.66 152.59-3.40L152.59-3.22L152.74-3.22L152.74-5.18L152.59-5.18L152.59-5.00C152.59-4.83 152.54-4.69 152.44-4.58C152.34-4.47 152.20-4.41 152.01-4.41L149.62-4.41L149.62-7.97L152.53-7.97C152.74-7.97 152.91-7.90 153.04-7.76C153.17-7.62 153.23-7.45 153.23-7.25L153.23-7.04L153.39-7.03L153.39-8.62C153.30-8.59 153.12-8.54 152.83-8.48C152.54-8.43 152.20-8.40 151.82-8.40L147.73-8.40L147.73-8.26L147.93-8.26C148.15-8.26 148.34-8.19 148.50-8.05C148.66-7.91 148.74-7.74 148.74-7.53L148.74-0.88C148.73-0.68 148.65-0.50 148.49-0.36C148.34-0.21 148.15-0.14 147.93-0.14Z"></path>
        </g>
    </g>
</svg>